# xmcd
#
# Track frame offsets:
#	150
#	10538
#	23570
#	37660
#	49020
#	61500
#	74668
#	88110
#	101215
#	114973
#
# Disc length: 1695 seconds
#
# Revision: 1
# Processed by: cddbd v1.5.2PL0 Copyright (c) Steve Scherf et al.
# Submitted via: EZCDAudioConverter 4.0.5.1
#
DISCID=6e069d0a
DTITLE=Muddy Waters - Sings Big Bill Broonzy
DYEAR=1960
DGENRE=Blues
TTITLE0=Tell Me Baby
TTITLE1=Southbound Train
TTITLE2=When I Get to Thinking
TTITLE3=Just a Dream (On My Mind)
TTITLE4=Double Trouble
TTITLE5=I Feel So Good
TTITLE6=I Done Got Wise
TTITLE7=Mopper's Blues
TTITLE8=Lonesome Road Blues
TTITLE9=Hey, Hey
EXTD=
EXTT0=
EXTT1=
EXTT2=
EXTT3=
EXTT4=
EXTT5=
EXTT6=
EXTT7=
EXTT8=
EXTT9=
PLAYORDER=
